<svg id="Layer_1" data-name="Layer 1" xmlns="http://www.w3.org/2000/svg" viewBox="0 0 500 550"><defs><style>.cls-1{fill:#3b4799;}.cls-2{fill:#fff;}</style></defs><rect class="cls-1" width="500" height="550"/><path class="cls-2" d="M80,186.6h29q11.72,0,18,5.09t6.34,14.51a16.24,16.24,0,0,1-2.11,8.46,15.25,15.25,0,0,1-6,5.76,15.58,15.58,0,0,1,6.72,6.15,17.69,17.69,0,0,1,2.41,9.42,22.6,22.6,0,0,1-1.73,9.13,17.07,17.07,0,0,1-5,6.43,22.63,22.63,0,0,1-8,3.94,39.89,39.89,0,0,1-10.48,1.25H80Zm13.36,40.45v17.49h16q5.58,0,8.36-2.31a8,8,0,0,0,2.89-6.53,7.73,7.73,0,0,0-2.69-6.34q-2.7-2.31-9.13-2.31Zm0-28.44v16.24H109.5q5.48,0,7.88-2.31a8.21,8.21,0,0,0,2.4-6,7,7,0,0,0-2.59-5.77q-2.5-2.11-7.88-2.11Z"/><path class="cls-2" d="M148.14,186.6h28.44a29.74,29.74,0,0,1,10.76,1.82,22.46,22.46,0,0,1,8.07,5.1,20.76,20.76,0,0,1,5.1,7.49,24.61,24.61,0,0,1-1.44,21.53,21.28,21.28,0,0,1-9,8.55l13.84,25.65H188.69l-11.24-22.1H161.69v22.1H148.14Zm13.55,12.49v23.16h13.83a15.52,15.52,0,0,0,5.77-1,11.62,11.62,0,0,0,4.13-2.6,10.12,10.12,0,0,0,2.4-3.75,13.41,13.41,0,0,0,.77-4.51,10.84,10.84,0,0,0-3.26-8.27q-3.27-3.07-9.81-3.07Z"/><path class="cls-2" d="M237.53,186.6h13.35l26.52,70.14H263.47L258.86,244H229.55l-4.61,12.78H211Zm-3.46,45.06h20.27L244.25,203.8Z"/><path class="cls-2" d="M286.57,186.6h14.51l30.75,47.75V186.6h13.06v70.14H331.44l-31.71-49.29v49.29H286.57Z"/><path class="cls-2" d="M360.71,186.6h22.68a40.15,40.15,0,0,1,15.08,2.69,33.35,33.35,0,0,1,11.54,7.4,32.22,32.22,0,0,1,7.39,11.14,36.2,36.2,0,0,1,2.6,13.84,34.63,34.63,0,0,1-2.79,13.93,32.67,32.67,0,0,1-7.59,11.15,35.64,35.64,0,0,1-11.43,7.3,38.12,38.12,0,0,1-14.51,2.69h-23Zm13.65,12.59v44.87h8.45a25.69,25.69,0,0,0,9.61-1.73,20.8,20.8,0,0,0,12.11-11.82,22.69,22.69,0,0,0,1.73-8.84,24.32,24.32,0,0,0-1.63-8.94,19.12,19.12,0,0,0-4.62-7.11,19.51,19.51,0,0,0-7.4-4.71,27.85,27.85,0,0,0-10.18-1.72Z"/><path class="cls-2" d="M80,292.3H94.51l30.75,47.75V292.3h13.07v70.14H124.87L93.16,313.15v49.29H80Z"/><path class="cls-2" d="M178.24,363.4a31.89,31.89,0,0,1-11.34-1.92,25.05,25.05,0,0,1-8.75-5.48,25.36,25.36,0,0,1-5.67-8.84,33.58,33.58,0,0,1-1.92-11.72V292.3H164.4v43.43a14.92,14.92,0,0,0,3.75,10.57,14.63,14.63,0,0,0,20.17,0,14.67,14.67,0,0,0,3.85-10.57V292.3H206v43.14a32.22,32.22,0,0,1-2,11.72,25.36,25.36,0,0,1-5.67,8.84,25.05,25.05,0,0,1-8.75,5.48A31.87,31.87,0,0,1,178.24,363.4Z"/><path class="cls-2" d="M216.62,292.3H239.3A40.15,40.15,0,0,1,254.38,295a33.35,33.35,0,0,1,11.54,7.4,32.27,32.27,0,0,1,7.39,11.14,36.2,36.2,0,0,1,2.6,13.84,34.63,34.63,0,0,1-2.79,13.93,32.77,32.77,0,0,1-7.59,11.15,35.64,35.64,0,0,1-11.43,7.3,38.12,38.12,0,0,1-14.51,2.69h-23Zm13.65,12.58v44.88h8.45a25.69,25.69,0,0,0,9.61-1.73,20.8,20.8,0,0,0,12.11-11.82,22.73,22.73,0,0,0,1.73-8.84,24.12,24.12,0,0,0-1.64-8.94,19,19,0,0,0-4.61-7.11,19.51,19.51,0,0,0-7.4-4.71,27.84,27.84,0,0,0-10.18-1.73Z"/><path class="cls-2" d="M318.58,363.4a37.73,37.73,0,0,1-15-2.88,35.74,35.74,0,0,1-11.53-7.78,36.58,36.58,0,0,1-7.49-11.53,38.3,38.3,0,0,1,.09-28,34.72,34.72,0,0,1,18.93-19.12,40.38,40.38,0,0,1,32.1,1.15,36.66,36.66,0,0,1,12.49,10.67l-11.44,8a21.09,21.09,0,0,0-7.78-7.11,21.56,21.56,0,0,0-10.76-2.6,22,22,0,0,0-9,1.83,22.36,22.36,0,0,0-11.92,12.3,23.68,23.68,0,0,0-1.73,9,25.1,25.1,0,0,0,1.64,9.13,24.25,24.25,0,0,0,4.7,7.3,21.91,21.91,0,0,0,7.31,4.8,24,24,0,0,0,9.22,1.73q8.07,0,13.17-4.13a20.08,20.08,0,0,0,6.82-11.05H316.09V322.47H353v5.86a37.43,37.43,0,0,1-2.4,13.36,34.5,34.5,0,0,1-6.92,11.24,32.72,32.72,0,0,1-10.86,7.69A35.06,35.06,0,0,1,318.58,363.4Z"/><rect class="cls-2" x="365.32" y="291.98" width="52.85" height="12.81"/><rect class="cls-2" x="365.32" y="320.8" width="52.85" height="12.81"/><rect class="cls-2" x="365.32" y="349.63" width="52.85" height="12.81"/></svg>