<svg id="Layer_1" data-name="Layer 1" xmlns="http://www.w3.org/2000/svg" viewBox="0 0 60 32"><defs><style>.cls-1{fill:#fff;}</style></defs><path class="cls-1" d="M.25.53H5.32a4.85,4.85,0,0,1,3.15.89A3,3,0,0,1,9.58,4a2.83,2.83,0,0,1-.37,1.48,2.73,2.73,0,0,1-1,1A2.71,2.71,0,0,1,9.34,7.52a3.11,3.11,0,0,1,.42,1.65,4,4,0,0,1-.3,1.6,3,3,0,0,1-.87,1.13,4.08,4.08,0,0,1-1.4.69,7.31,7.31,0,0,1-1.83.21H.25ZM2.58,7.61v3.06H5.39a2.28,2.28,0,0,0,1.47-.41,1.42,1.42,0,0,0,.5-1.14A1.37,1.37,0,0,0,6.89,8a2.48,2.48,0,0,0-1.6-.4Zm0-5V5.47H5.41a2,2,0,0,0,1.38-.4A1.45,1.45,0,0,0,7.21,4a1.22,1.22,0,0,0-.46-1,2.08,2.08,0,0,0-1.37-.37Z"/><path class="cls-1" d="M12.17.53h5A5,5,0,0,1,19,.85a4,4,0,0,1,1.42.89,3.67,3.67,0,0,1,.89,1.31,4.19,4.19,0,0,1,.32,1.63,4.18,4.18,0,0,1-.57,2.14A3.64,3.64,0,0,1,19.5,8.31l2.43,4.49H19.27l-2-3.86H14.54V12.8H12.17Zm2.37,2.18V6.77H17a2.73,2.73,0,0,0,1-.17,1.86,1.86,0,0,0,.73-.46,1.73,1.73,0,0,0,.42-.65,2.38,2.38,0,0,0,.13-.79,1.9,1.9,0,0,0-.57-1.45A2.41,2.41,0,0,0,17,2.71Z"/><path class="cls-1" d="M27.82.53h2.33L34.8,12.8H32.36l-.81-2.23H26.42l-.81,2.23H23.17Zm-.61,7.88h3.55L29,3.54Z"/><path class="cls-1" d="M36.4.53h2.54l5.38,8.36V.53h2.29V12.8H44.25L38.7,4.18V12.8H36.4Z"/><path class="cls-1" d="M49.38.53h4A7,7,0,0,1,56,1a5.84,5.84,0,0,1,2,1.29,5.63,5.63,0,0,1,1.29,2,6.41,6.41,0,0,1,.45,2.43,6.13,6.13,0,0,1-.48,2.43,5.82,5.82,0,0,1-1.33,2,6.33,6.33,0,0,1-2,1.27,6.6,6.6,0,0,1-2.54.47h-4Zm2.39,2.2v7.85h1.48a4.56,4.56,0,0,0,1.68-.3,3.61,3.61,0,0,0,1.29-.82,3.74,3.74,0,0,0,.83-1.25,4,4,0,0,0,.3-1.54,4.26,4.26,0,0,0-.29-1.57,3.24,3.24,0,0,0-.8-1.24A3.42,3.42,0,0,0,55,3a4.88,4.88,0,0,0-1.78-.3Z"/><path class="cls-1" d="M.25,19H2.79l5.38,8.36V19h2.28V31.3H8.1L2.55,22.68V31.3H.25Z"/><path class="cls-1" d="M17.44,31.47a5.73,5.73,0,0,1-2-.33,4.16,4.16,0,0,1-2.52-2.51,6,6,0,0,1-.33-2.05V19H15v7.6a2.64,2.64,0,0,0,.65,1.85,2.34,2.34,0,0,0,1.77.71,2.34,2.34,0,0,0,1.77-.71,2.61,2.61,0,0,0,.67-1.85V19H22.3v7.55A5.72,5.72,0,0,1,22,28.63a4.21,4.21,0,0,1-2.53,2.51A5.63,5.63,0,0,1,17.44,31.47Z"/><path class="cls-1" d="M24.16,19h4a7,7,0,0,1,2.64.47,5.84,5.84,0,0,1,2,1.29,5.63,5.63,0,0,1,1.29,1.95,6.41,6.41,0,0,1,.45,2.43,6.13,6.13,0,0,1-.48,2.43,5.82,5.82,0,0,1-1.33,2,6.33,6.33,0,0,1-2,1.27,6.6,6.6,0,0,1-2.54.47h-4Zm2.39,2.2v7.85H28a4.56,4.56,0,0,0,1.68-.3A3.61,3.61,0,0,0,31,28a3.74,3.74,0,0,0,.83-1.25,4,4,0,0,0,.3-1.54,4.26,4.26,0,0,0-.29-1.57,3.24,3.24,0,0,0-.8-1.24,3.42,3.42,0,0,0-1.3-.83,4.88,4.88,0,0,0-1.78-.3Z"/><path class="cls-1" d="M42,31.47a6.72,6.72,0,0,1-2.62-.5,6.36,6.36,0,0,1-2-1.36,6.45,6.45,0,0,1-1.31-2,6.54,6.54,0,0,1-.45-2.42,6.37,6.37,0,0,1,.47-2.48,5.94,5.94,0,0,1,1.31-2,6,6,0,0,1,2-1.34,7,7,0,0,1,5.62.2,6.34,6.34,0,0,1,2.18,1.87l-2,1.39a3.67,3.67,0,0,0-1.36-1.24,3.72,3.72,0,0,0-1.88-.46,3.88,3.88,0,0,0-1.58.32,4.07,4.07,0,0,0-1.27.88,4,4,0,0,0-.82,1.28,4.15,4.15,0,0,0-.3,1.58,4.36,4.36,0,0,0,.28,1.59A4.28,4.28,0,0,0,39.08,28a3.75,3.75,0,0,0,1.28.84,4.24,4.24,0,0,0,1.61.31,3.54,3.54,0,0,0,2.3-.73,3.44,3.44,0,0,0,1.2-1.93h-3.9V24.31H48v1a6.56,6.56,0,0,1-.42,2.34,6,6,0,0,1-1.21,2A5.75,5.75,0,0,1,44.49,31,6.21,6.21,0,0,1,42,31.47Z"/><rect class="cls-1" x="50.18" y="18.97" width="9.25" height="2.24"/><rect class="cls-1" x="50.18" y="24.02" width="9.25" height="2.24"/><rect class="cls-1" x="50.18" y="29.06" width="9.25" height="2.24"/></svg>